<svg width="18" height="24" viewBox="0 0 18 24" fill="none" xmlns="http://www.w3.org/2000/svg">
<path d="M5.25872e-06 9.00018C-3.97963e-05 7.51401 0.355263 6.05097 1.03419 4.74168C1.71311 3.43239 2.69453 2.3176 3.89081 1.49687C5.08708 0.676139 6.46098 0.175002 7.88982 0.0382081C9.31866 -0.0985857 10.758 0.133221 12.0792 0.712931C13.4005 1.29264 14.5626 2.20221 15.4617 3.36042C16.3609 4.51863 16.9691 5.88943 17.2321 7.35042C17.4951 8.81141 17.4047 10.3171 16.9689 11.7331C16.5331 13.1491 15.7656 14.4312 14.7348 15.4651C14.4408 15.7591 14.2148 16.0651 14.0787 16.3936L12.9751 19.0471C12.9191 19.1815 12.8263 19.2961 12.7082 19.3766C12.5901 19.4571 12.4518 19.5 12.3103 19.5001H5.06897C4.92731 19.5003 4.7887 19.4575 4.67028 19.377C4.55187 19.2965 4.45886 19.1818 4.40276 19.0471L3.30062 16.3921C3.14282 16.0415 2.91989 15.7265 2.64456 15.4651C1.80691 14.6269 1.141 13.6223 0.686623 12.5116C0.232246 11.4008 -0.00127782 10.2065 5.25872e-06 9.00018ZM4.34483 21.75C4.34483 21.5511 4.42112 21.3604 4.55693 21.2197C4.69273 21.0791 4.87691 21 5.06897 21H12.3103C12.5024 21 12.6866 21.0791 12.8224 21.2197C12.9582 21.3604 13.0345 21.5511 13.0345 21.75C13.0345 21.9489 12.9582 22.1397 12.8224 22.2803C12.6866 22.421 12.5024 22.5 12.3103 22.5L11.9859 23.1705C11.8657 23.4196 11.681 23.6292 11.4523 23.7757C11.2236 23.9222 10.9601 23.9999 10.6912 24H6.68814C6.41925 23.9999 6.15571 23.9222 5.92703 23.7757C5.69836 23.6292 5.51358 23.4196 5.39338 23.1705L5.06897 22.5C4.87691 22.5 4.69273 22.421 4.55693 22.2803C4.42112 22.1397 4.34483 21.9489 4.34483 21.75Z" fill="#7478FE"/>
</svg>
