<svg width="33" height="24" viewBox="0 0 33 24" fill="none" xmlns="http://www.w3.org/2000/svg">
<path d="M6.34848 3.29C6.30722 2.87354 6.35528 2.45322 6.48958 2.05604C6.62387 1.65887 6.84142 1.29364 7.12825 0.983797C7.41508 0.673958 7.76486 0.426371 8.1551 0.256943C8.54533 0.0875151 8.96741 -6.91266e-06 9.3942 4.09498e-10H14.28C14.5505 4.09498e-10 14.81 0.105357 15.0012 0.292893C15.1925 0.48043 15.3 0.734784 15.3 1V1.764C15.3 3.156 14.2861 4.128 13.5211 4.702C13.429 4.76615 13.3496 4.8461 13.2865 4.938C13.2763 4.95362 13.2681 4.97041 13.262 4.988L13.26 5V5.006L13.2661 5.026C13.2743 5.046 13.2947 5.082 13.3396 5.132C13.4957 5.29523 13.6828 5.42702 13.8904 5.52C14.4636 5.8 15.3204 6 16.32 6C17.3237 6 18.1805 5.8 18.7476 5.52C18.9559 5.42725 19.1437 5.29544 19.3004 5.132C19.3304 5.09989 19.3552 5.06347 19.3739 5.024L19.38 5.004V4.988C19.374 4.9704 19.3658 4.95361 19.3555 4.938C19.2925 4.8461 19.213 4.76615 19.1209 4.702C18.3559 4.128 17.342 3.156 17.342 1.764V1C17.342 0.73513 17.4492 0.481079 17.6401 0.2936C17.8309 0.106121 18.0898 0.000529741 18.36 4.09498e-10H23.2458C23.6726 -6.91266e-06 24.0947 0.0875151 24.4849 0.256943C24.8751 0.426371 25.2249 0.673958 25.5117 0.983797C25.7986 1.29364 26.0161 1.65887 26.1504 2.05604C26.2847 2.45322 26.3328 2.87354 26.2915 3.29L25.7958 9H26.2793C26.6771 9 27.1361 8.706 27.6563 8.04C28.0847 7.492 28.7334 7 29.58 7C30.7387 7 31.5119 7.894 31.9342 8.724C32.3891 9.614 32.64 10.774 32.64 12C32.64 13.226 32.3891 14.386 31.9342 15.276C31.5119 16.106 30.7387 17 29.58 17C28.7334 17 28.0847 16.508 27.6563 15.96C27.1361 15.294 26.6771 15 26.2793 15H25.7958L26.2915 20.71C26.3328 21.1265 26.2847 21.5468 26.1504 21.944C26.0161 22.3411 25.7986 22.7064 25.5117 23.0162C25.2249 23.326 24.8751 23.5736 24.4849 23.7431C24.0947 23.9125 23.6726 24 23.2458 24H18.36C18.0895 24 17.83 23.8946 17.6388 23.7071C17.4475 23.5196 17.34 23.2652 17.34 23V22.236C17.34 20.844 18.3539 19.872 19.1189 19.298C19.211 19.2339 19.2904 19.1539 19.3535 19.062C19.3637 19.0464 19.3719 19.0296 19.378 19.012L19.38 19V18.994L19.3739 18.974C19.355 18.9353 19.3302 18.8995 19.3004 18.868C19.1444 18.7047 18.9573 18.5729 18.7496 18.48C18.1764 18.2 17.3196 18 16.32 18C15.3184 18 14.4595 18.2 13.8924 18.48C13.684 18.5727 13.4962 18.7045 13.3396 18.868C13.3096 18.9001 13.2849 18.9365 13.2661 18.976L13.26 18.996V19L13.262 19.012C13.2681 19.0296 13.2763 19.0464 13.2865 19.062C13.3192 19.116 13.3885 19.198 13.5211 19.298C14.2861 19.872 15.3 20.844 15.3 22.236V23C15.3 23.2652 15.1925 23.5196 15.0012 23.7071C14.81 23.8946 14.5505 24 14.28 24H9.3942C8.96741 24 8.54533 23.9125 8.1551 23.7431C7.76486 23.5736 7.41508 23.326 7.12825 23.0162C6.84142 22.7064 6.62387 22.3411 6.48958 21.944C6.35528 21.5468 6.30722 21.1265 6.34848 20.71L6.84624 15H6.36072C5.96292 15 5.50392 15.294 4.98372 15.96C4.55532 16.508 3.9066 17 3.06 17C1.90128 17 1.12812 16.106 0.70584 15.276C0.25092 14.386 0 13.226 0 12C0 10.774 0.25092 9.614 0.70584 8.724C1.12812 7.894 1.90128 7 3.06 7C3.9066 7 4.55532 7.492 4.98372 8.04C5.50392 8.706 5.96292 9 6.36072 9H6.84624L6.34848 3.29Z" fill="#7478FE"/>
</svg>
