<svg width="17" height="24" viewBox="0 0 17 24" fill="none" xmlns="http://www.w3.org/2000/svg">
<path d="M13.1261 0.102657C13.2729 0.18776 13.3865 0.320129 13.4483 0.478142C13.5101 0.636154 13.5166 0.810468 13.4665 0.972607L10.7652 9.75011H15.7494C15.8959 9.75005 16.0392 9.79289 16.1616 9.87333C16.284 9.95377 16.3802 10.0683 16.4382 10.2028C16.4963 10.3372 16.5137 10.4858 16.4883 10.63C16.4629 10.7743 16.3959 10.908 16.2954 11.0145L4.29605 23.7638C4.17995 23.8873 4.02545 23.9678 3.85774 23.9922C3.69003 24.0166 3.51899 23.9835 3.37251 23.8982C3.22603 23.813 3.11274 23.6806 3.05111 23.5228C2.98948 23.3649 2.98314 23.1908 3.03313 23.0289L5.73447 14.2499H0.750257C0.603782 14.2499 0.460497 14.2071 0.338089 14.1266C0.215681 14.0462 0.119508 13.9317 0.0614433 13.7972C0.00337868 13.6627 -0.0140361 13.5142 0.0113486 13.3699C0.0367333 13.2257 0.103806 13.092 0.204287 12.9854L12.2036 0.236149C12.3196 0.112855 12.4738 0.0324137 12.6413 0.00790499C12.8088 -0.0166037 12.9796 0.0162615 13.1261 0.101157V0.102657Z" fill="#7478FE"/>
</svg>
