<svg width="21" height="24" viewBox="0 0 21 24" fill="none" xmlns="http://www.w3.org/2000/svg">
<path fill-rule="evenodd" clip-rule="evenodd" d="M10.5 0C9.46501 0 7.73551 0.3975 6.10801 0.84C4.44301 1.29 2.76451 1.8225 1.77751 2.145C1.36485 2.28128 0.998994 2.5312 0.721983 2.86605C0.444973 3.20091 0.268039 3.60711 0.211508 4.038C-0.682492 10.7535 1.39201 15.7305 3.90901 19.023C4.97638 20.4314 6.24905 21.6717 7.68451 22.7025C8.26351 23.112 8.80051 23.4255 9.25651 23.64C9.67651 23.838 10.128 24 10.5 24C10.872 24 11.322 23.838 11.7435 23.64C12.2932 23.3728 12.8191 23.0592 13.3155 22.7025C14.751 21.6718 16.0237 20.4315 17.091 19.023C19.608 15.7305 21.6825 10.7535 20.7885 4.038C20.7321 3.6069 20.5552 3.20046 20.2782 2.86535C20.0012 2.53024 19.6353 2.28004 19.2225 2.1435C17.7897 1.67372 16.3458 1.23859 14.892 0.8385C13.2645 0.399 11.535 0 10.5 0ZM13.719 7.719C13.8598 7.57817 14.0508 7.49905 14.25 7.49905C14.4492 7.49905 14.6402 7.57817 14.781 7.719C14.9218 7.85983 15.001 8.05084 15.001 8.25C15.001 8.44916 14.9218 8.64017 14.781 8.781L10.281 13.281C10.2113 13.3508 10.1286 13.4063 10.0375 13.4441C9.94634 13.4819 9.84866 13.5013 9.75001 13.5013C9.65136 13.5013 9.55368 13.4819 9.46256 13.4441C9.37144 13.4063 9.28868 13.3508 9.21901 13.281L6.96901 11.031C6.89928 10.9613 6.84396 10.8785 6.80622 10.7874C6.76848 10.6963 6.74906 10.5986 6.74906 10.5C6.74906 10.4014 6.76848 10.3037 6.80622 10.2126C6.84396 10.1215 6.89928 10.0387 6.96901 9.969C7.03874 9.89927 7.12152 9.84395 7.21263 9.80622C7.30374 9.76848 7.40139 9.74905 7.50001 9.74905C7.59862 9.74905 7.69627 9.76848 7.78738 9.80622C7.87849 9.84395 7.96128 9.89927 8.03101 9.969L9.75001 11.6895L13.719 7.719Z" fill="#7478FE"/>
</svg>
