<svg width="252" height="253" viewBox="0 0 252 253" fill="none" xmlns="http://www.w3.org/2000/svg">
<path d="M125.636 252.264L125.636 252.256C123.19 211.202 112.379 181.027 91.9605 160.528C71.5418 140.028 41.5351 129.223 0.740621 126.866L0.740633 126.866H0.73341C0.278279 126.866 0.125 126.646 0.125 126.5C0.125 126.354 0.278279 126.134 0.73341 126.134V126.134L0.740902 126.134C41.633 123.679 71.6886 112.824 92.1071 92.3248C112.526 71.8252 123.288 41.6996 125.636 0.743475L125.636 0.743487V0.736321C125.636 0.278274 125.856 0.125 126 0.125C126.144 0.125 126.364 0.278274 126.364 0.736321H126.364L126.364 0.743755C128.81 41.7979 139.621 71.9725 160.04 92.4721C180.458 112.972 210.465 123.777 251.259 126.134V126.134H251.267C251.722 126.134 251.875 126.354 251.875 126.5C251.875 126.646 251.722 126.866 251.267 126.866L251.259 126.866C210.367 129.321 180.311 140.176 159.893 160.675C139.474 181.175 128.712 211.3 126.364 252.257L126.364 252.257V252.264C126.364 252.722 126.144 252.875 126 252.875C125.856 252.875 125.636 252.722 125.636 252.264Z" fill="black" fill-opacity="0.08" stroke="#CACAF7" stroke-width="0.25"/>
</svg>
